<mxfile host="app.diagrams.net" modified="2024-01-03T19:04:40.467Z" agent="Mozilla/5.0 (Macintosh; Intel Mac OS X 10_15_7) AppleWebKit/605.1.15 (KHTML, like Gecko) Version/16.5.1 Safari/605.1.15" etag="JSU6dMUdhB3IAWBlay9t" version="22.1.16" type="github">
  <diagram name="Page-1" id="VIa_k0GeJmzwRV_naItp">
    <mxGraphModel dx="1434" dy="827" grid="1" gridSize="10" guides="1" tooltips="1" connect="1" arrows="1" fold="1" page="1" pageScale="1" pageWidth="1169" pageHeight="827" math="0" shadow="0">
      <root>
        <mxCell id="0" />
        <mxCell id="1" parent="0" />
        <mxCell id="Fbnn-sD7wGBO2zR1zrUd-4" style="edgeStyle=orthogonalEdgeStyle;rounded=0;orthogonalLoop=1;jettySize=auto;html=1;exitX=0.5;exitY=1;exitDx=0;exitDy=0;entryX=0.5;entryY=0;entryDx=0;entryDy=0;" parent="1" source="Fbnn-sD7wGBO2zR1zrUd-2" edge="1">
          <mxGeometry relative="1" as="geometry">
            <mxPoint x="570" y="270" as="targetPoint" />
          </mxGeometry>
        </mxCell>
        <mxCell id="Fbnn-sD7wGBO2zR1zrUd-2" value="Previous challenges Screen" style="shape=process;whiteSpace=wrap;html=1;backgroundOutline=1;" parent="1" vertex="1">
          <mxGeometry x="510" y="120" width="120" height="60" as="geometry" />
        </mxCell>
        <mxCell id="5JU57Ppxez2yr2TKkZZW-3" style="edgeStyle=orthogonalEdgeStyle;rounded=0;orthogonalLoop=1;jettySize=auto;html=1;exitX=0.5;exitY=1;exitDx=0;exitDy=0;entryX=0.5;entryY=0;entryDx=0;entryDy=0;" edge="1" parent="1" source="5JU57Ppxez2yr2TKkZZW-1" target="5JU57Ppxez2yr2TKkZZW-2">
          <mxGeometry relative="1" as="geometry" />
        </mxCell>
        <mxCell id="5JU57Ppxez2yr2TKkZZW-1" value="Fetch current challenge freelancer is in" style="rounded=0;whiteSpace=wrap;html=1;" vertex="1" parent="1">
          <mxGeometry x="510" y="270" width="120" height="60" as="geometry" />
        </mxCell>
        <mxCell id="5JU57Ppxez2yr2TKkZZW-5" style="edgeStyle=orthogonalEdgeStyle;rounded=0;orthogonalLoop=1;jettySize=auto;html=1;exitX=0.5;exitY=1;exitDx=0;exitDy=0;entryX=0.5;entryY=0;entryDx=0;entryDy=0;" edge="1" parent="1" source="5JU57Ppxez2yr2TKkZZW-2" target="5JU57Ppxez2yr2TKkZZW-4">
          <mxGeometry relative="1" as="geometry" />
        </mxCell>
        <mxCell id="5JU57Ppxez2yr2TKkZZW-2" value="Output challenge in&lt;br&gt;detail" style="shape=parallelogram;perimeter=parallelogramPerimeter;whiteSpace=wrap;html=1;fixedSize=1;" vertex="1" parent="1">
          <mxGeometry x="495" y="414" width="150" height="76" as="geometry" />
        </mxCell>
        <mxCell id="5JU57Ppxez2yr2TKkZZW-4" value="Stop" style="ellipse;whiteSpace=wrap;html=1;" vertex="1" parent="1">
          <mxGeometry x="510" y="590" width="120" height="80" as="geometry" />
        </mxCell>
      </root>
    </mxGraphModel>
  </diagram>
</mxfile>
